<?xml version="1.0" standalone="no"?>
<!DOCTYPE svg PUBLIC "-//W3C//DTD SVG 20010904//EN"
 "http://www.w3.org/TR/2001/REC-SVG-20010904/DTD/svg10.dtd">
<svg version="1.0" xmlns="http://www.w3.org/2000/svg"
 width="1024.000000pt" height="1024.000000pt" viewBox="0 0 1024.000000 1024.000000"
 preserveAspectRatio="xMidYMid meet">
<metadata>
Created by potrace 1.11, written by Peter Selinger 2001-2013
</metadata>
<g transform="translate(0.000000,1024.000000) scale(0.100000,-0.100000)"
fill="#000000" stroke="none">
<path d="M4948 10235 c-2 -1 -30 -6 -63 -10 -33 -3 -78 -10 -100 -15 -38 -8
-58 -12 -129 -25 -16 -3 -33 -8 -38 -11 -5 -3 -19 -7 -31 -10 -80 -14 -375
-143 -448 -194 -15 -11 -30 -20 -33 -20 -9 0 -144 -97 -206 -148 -105 -86
-320 -315 -320 -340 0 -6 -4 -12 -9 -14 -20 -7 -197 -306 -206 -348 -1 -3 -9
-23 -19 -45 -16 -38 -64 -172 -72 -205 -2 -8 -10 -42 -19 -75 -16 -64 -21 -87
-30 -150 -3 -23 -8 -52 -10 -65 -5 -22 -17 -243 -16 -280 0 -8 0 -33 0 -55 0
-22 0 -47 0 -55 1 -29 1 -76 -2 -173 -1 -53 2 -97 6 -97 5 0 6 -4 3 -8 -5 -9
-6 -39 -7 -187 0 -49 -1 -134 -2 -188 -1 -53 2 -97 6 -97 5 0 6 -4 3 -9 -5 -8
-7 -68 -5 -131 0 -8 0 -31 0 -50 -1 -19 -1 -44 -1 -55 1 -39 1 -290 0 -302 0
-7 0 -19 -1 -25 0 -7 0 -31 0 -53 1 -22 0 -66 -1 -98 -2 -31 -1 -57 2 -57 3 0
4 -28 3 -62 -2 -49 -3 -276 -2 -398 0 -8 0 -80 0 -160 0 -80 0 -152 0 -160 0
-25 0 -202 -1 -283 0 -27 2 -53 5 -58 4 -5 2 -9 -3 -9 -4 0 -6 -22 -2 -50 4
-27 4 -50 1 -50 -7 0 -5 -119 2 -126 2 -2 1 -22 -3 -44 -4 -21 -4 -44 0 -50 4
-6 4 -26 1 -43 -4 -18 -4 -51 -1 -74 4 -24 4 -43 0 -43 -3 0 -4 -22 0 -50 4
-27 4 -50 1 -50 -7 0 -5 -119 2 -126 2 -2 1 -22 -3 -44 -4 -21 -4 -43 -1 -49
4 -6 4 -38 1 -71 -3 -33 -3 -65 0 -69 3 -5 3 -48 0 -95 -3 -47 -1 -86 3 -86 5
0 6 -4 3 -9 -3 -5 -6 -36 -7 -70 -1 -53 -6 -66 -33 -97 -142 -166 -304 -427
-399 -644 -20 -44 -78 -200 -82 -220 -2 -8 -13 -46 -25 -85 -12 -38 -24 -81
-26 -95 -3 -14 -7 -33 -10 -42 -3 -10 -7 -30 -10 -45 -2 -16 -9 -53 -16 -83
-11 -58 -12 -60 -25 -180 -15 -142 -7 -558 12 -612 2 -7 7 -33 10 -58 8 -62
11 -77 25 -135 6 -27 14 -61 16 -75 3 -14 8 -34 11 -45 4 -11 8 -24 9 -30 9
-41 80 -238 113 -312 104 -236 255 -479 406 -653 52 -60 248 -254 299 -295 26
-22 57 -49 69 -59 11 -11 83 -61 159 -112 171 -115 457 -258 578 -289 3 -1 13
-5 23 -8 38 -15 52 -20 62 -23 6 -1 42 -12 80 -23 69 -19 257 -59 312 -65 15
-2 28 -4 28 -5 0 -1 34 -5 75 -8 165 -14 581 -6 609 11 3 2 31 7 61 11 30 3
86 13 124 22 37 8 73 16 80 17 49 10 241 70 291 91 17 7 48 20 70 28 70 26
194 87 282 138 46 27 87 49 89 49 2 0 22 12 43 27 21 16 49 35 61 43 146 97
389 315 492 443 18 22 38 45 44 51 40 41 214 296 214 314 0 6 4 12 9 14 9 3
93 165 139 268 56 125 132 359 147 450 3 19 9 44 12 55 3 11 7 29 9 40 2 11 5
34 8 50 28 173 34 250 31 465 -2 118 -5 224 -8 235 -2 11 -8 43 -11 70 -10 78
-15 106 -26 160 -18 86 -63 260 -70 270 -4 6 -10 23 -14 39 -17 70 -126 320
-186 426 -52 91 -178 283 -207 315 -10 11 -30 36 -44 55 -15 19 -36 46 -48 59
-13 15 -21 38 -21 60 0 20 0 45 0 56 -1 38 -1 290 0 303 0 6 0 18 1 25 0 6 0
30 0 52 -1 22 0 66 1 98 2 31 1 57 -2 57 -3 0 -4 28 -3 62 7 184 7 438 0 438
-5 0 -6 4 -3 9 5 8 7 68 5 131 0 8 0 31 0 50 1 19 1 44 1 55 -1 39 -1 290 0
303 0 6 0 18 1 25 0 6 0 30 0 52 -1 22 0 66 1 98 2 31 1 57 -2 57 -3 0 -4 28
-3 62 2 49 3 276 2 398 0 8 0 80 0 160 0 80 0 152 0 160 0 25 0 202 1 283 0
27 -2 53 -5 58 -4 5 -2 9 3 9 4 0 6 23 2 50 -4 28 -4 50 -1 50 7 0 5 119 -2
126 -2 2 -1 22 3 44 4 21 4 44 0 50 -4 6 -4 26 -1 43 4 18 4 51 1 75 -4 23 -4
42 0 42 3 0 4 23 0 50 -4 28 -4 50 -1 50 7 0 5 119 -2 126 -2 2 -1 22 3 44 4
21 4 44 -1 51 -4 7 -6 16 -4 19 10 16 2 393 -10 455 -3 17 -8 46 -11 65 -4 19
-8 44 -10 55 -5 40 -32 155 -41 175 -3 8 -7 17 -8 20 -37 124 -99 277 -122
303 -9 9 -13 17 -10 17 7 0 -76 143 -109 187 -13 17 -24 36 -24 41 0 6 -3 12
-7 14 -5 2 -21 21 -37 43 -76 103 -256 281 -368 366 -108 80 -299 195 -358
214 -3 1 -27 12 -55 24 -117 52 -307 107 -442 127 -26 3 -57 9 -68 11 -22 6
-402 13 -407 8z m337 -968 c72 -18 149 -39 173 -49 15 -6 29 -12 32 -13 50
-17 210 -113 210 -126 0 -5 5 -9 11 -9 37 0 211 -207 262 -311 25 -52 83 -204
85 -222 0 -4 3 -24 6 -45 11 -67 16 -135 15 -242 0 -96 0 -115 1 -152 1 -7 0
-66 -1 -131 -1 -65 1 -120 3 -123 3 -2 2 -22 -2 -44 -4 -21 -4 -44 0 -50 4 -6
4 -26 1 -43 -4 -18 -4 -51 -1 -74 4 -24 4 -43 0 -43 -3 0 -4 -22 0 -50 4 -27
2 -50 -2 -50 -5 0 -7 -4 -4 -9 3 -5 6 -74 5 -153 0 -78 0 -151 0 -160 1 -10 1
-24 1 -30 1 -25 0 -234 -1 -273 0 -22 0 -46 0 -52 1 -20 2 -43 1 -106 0 -32 2
-62 5 -68 4 -5 1 -9 -5 -9 -6 0 -9 -4 -6 -8 5 -9 6 -40 7 -212 0 -132 1 -118
-3 -193 -2 -31 0 -57 3 -57 3 0 3 -20 -1 -45 -4 -25 -4 -48 0 -50 4 -3 4 -22
0 -44 -4 -22 -4 -45 0 -51 4 -6 4 -28 0 -48 -3 -20 -4 -47 -1 -60 3 -12 4 -61
1 -108 -3 -47 -2 -90 1 -96 3 -5 3 -24 0 -41 -4 -18 -4 -49 0 -69 3 -21 4 -40
1 -43 -3 -3 -5 -21 -5 -40 0 -19 2 -37 5 -40 3 -3 2 -23 -2 -45 -4 -21 -4 -44
1 -51 4 -7 6 -16 3 -21 -4 -6 -5 -45 -3 -108 0 -12 0 -81 0 -190 0 -8 -2 -41
-3 -73 -2 -31 0 -57 3 -57 3 0 3 -20 -1 -45 -4 -25 -4 -48 0 -50 4 -3 4 -22 0
-44 -4 -22 -4 -45 0 -51 4 -6 4 -28 0 -48 -3 -20 -4 -47 -1 -60 3 -12 4 -61 1
-108 -3 -47 -2 -90 1 -96 3 -5 3 -24 0 -41 -4 -18 -4 -49 0 -69 3 -21 4 -40 1
-42 -7 -8 -8 -86 -1 -86 3 0 3 -20 -1 -45 -4 -25 -3 -48 2 -51 4 -3 6 -9 3
-14 -4 -7 -7 -71 -3 -115 1 -25 10 -37 80 -116 69 -78 88 -100 142 -163 22
-26 49 -57 59 -69 9 -11 17 -23 17 -26 0 -3 11 -18 24 -32 13 -14 31 -39 40
-55 9 -16 30 -49 46 -74 42 -66 156 -300 145 -300 -2 0 5 -24 16 -52 10 -29
19 -62 19 -73 0 -12 5 -26 12 -33 7 -7 9 -12 6 -12 -3 0 -2 -17 3 -37 22 -100
32 -387 17 -508 -24 -189 -91 -399 -179 -560 -45 -84 -140 -225 -150 -225 -5
0 -9 -5 -9 -11 0 -12 -27 -43 -121 -138 -72 -74 -173 -156 -262 -215 -65 -42
-268 -146 -286 -146 -6 0 -19 -4 -29 -9 -32 -18 -222 -71 -277 -77 -16 -2 -50
-7 -75 -11 -102 -16 -505 -3 -505 17 0 1 -9 3 -20 5 -38 7 -110 24 -140 33
-64 20 -220 85 -226 94 -3 5 -8 9 -10 7 -6 -4 -112 51 -130 67 -8 8 -19 14
-23 14 -4 0 -12 5 -19 10 -7 6 -34 26 -61 44 -96 67 -225 192 -327 316 -18 22
-103 150 -136 205 -50 83 -142 316 -159 400 -35 174 -39 214 -38 380 0 131 6
226 20 285 3 14 8 40 11 59 9 61 72 241 115 329 66 138 195 325 324 469 16 17
47 53 69 79 22 26 52 59 68 73 27 26 30 40 26 141 0 8 0 31 0 50 1 19 1 44 1
55 0 11 0 44 0 73 0 30 -2 58 -6 63 -3 5 0 9 6 9 6 0 9 4 6 8 -6 10 -7 60 -6
192 0 52 0 100 -1 105 -1 6 -1 13 0 18 1 6 1 67 0 127 0 8 1 68 2 133 1 65 -1
120 -3 123 -3 2 -2 22 2 44 4 21 4 44 0 50 -4 6 -4 26 -1 43 4 18 4 51 1 75
-4 23 -4 42 0 42 3 0 4 23 0 50 -4 28 -2 50 2 50 5 0 7 4 4 9 -3 5 -6 74 -5
153 0 78 0 151 0 161 -1 9 -1 23 -1 30 -1 24 0 233 1 272 0 22 0 46 0 53 -1
19 -2 42 -1 105 0 32 -2 62 -5 68 -4 5 -1 9 5 9 6 0 9 4 6 8 -5 9 -6 40 -7
212 0 132 -1 118 3 193 2 31 0 57 -3 57 -3 0 -3 20 1 45 4 25 4 48 0 50 -4 3
-4 22 0 44 4 22 4 45 -1 52 -4 7 -6 16 -3 21 4 6 5 45 3 108 0 12 0 81 0 190
0 8 2 41 3 73 2 31 0 57 -3 57 -3 0 -3 20 1 45 4 25 4 48 0 50 -4 3 -4 22 0
44 4 22 4 45 -1 52 -4 7 -6 16 -3 21 4 6 5 50 3 108 0 8 0 62 0 120 0 58 0
112 0 120 0 8 0 24 1 35 1 11 1 36 1 55 -1 19 0 61 1 93 2 31 1 57 -2 57 -5 0
-5 27 5 250 6 141 9 175 18 200 3 8 13 42 22 75 9 33 22 66 27 73 6 6 8 12 5
12 -8 0 41 93 86 163 39 61 196 227 214 227 6 0 13 4 15 9 10 27 230 138 293
148 19 3 35 9 35 12 0 4 8 7 18 7 25 1 106 15 111 19 5 5 251 -2 276 -8z"/>
<path d="M5029 7675 c-2 -2 -17 -5 -34 -8 -48 -8 -125 -37 -188 -70 -71 -37
-227 -186 -227 -216 0 -5 -7 -14 -15 -21 -8 -6 -14 -15 -13 -18 1 -4 -8 -28
-20 -54 -42 -94 -56 -184 -51 -328 0 -15 0 -73 -1 -120 -4 -155 -4 -220 1
-220 3 0 3 -21 -1 -48 -3 -26 -3 -58 0 -70 3 -13 3 -57 0 -98 -3 -42 -2 -78 3
-81 4 -2 5 -8 2 -13 -4 -7 -5 -32 -4 -132 0 -15 0 -64 0 -185 0 -10 -1 -41 -1
-69 0 -29 0 -56 1 -60 1 -5 1 -13 0 -19 -1 -5 -2 -50 -1 -100 1 -49 1 -97 1
-105 -2 -78 0 -113 4 -121 4 -5 2 -9 -3 -9 -4 0 -6 -22 -2 -50 4 -27 4 -50 1
-50 -7 0 -5 -119 2 -126 2 -2 1 -22 -3 -44 -4 -21 -4 -44 0 -50 4 -6 4 -26 1
-43 -4 -18 -4 -51 -1 -74 4 -24 4 -43 0 -43 -3 0 -4 -22 0 -50 4 -27 4 -50 1
-50 -3 0 -6 -29 -6 -65 0 -36 3 -65 6 -65 3 0 3 -23 -1 -50 -4 -28 -4 -50 0
-50 3 0 3 -27 0 -60 -3 -33 -3 -65 0 -69 3 -5 3 -44 0 -86 -3 -42 -2 -79 3
-82 4 -2 5 -8 2 -13 -4 -7 -5 -32 -4 -132 0 -15 0 -64 0 -185 0 -10 -1 -41 -1
-69 0 -29 0 -56 1 -60 1 -5 0 -13 -1 -19 -1 -5 -1 -46 0 -90 1 -44 1 -87 1
-95 -1 -8 -1 -28 -2 -45 0 -26 -10 -36 -67 -72 -96 -60 -173 -129 -266 -234
-71 -81 -186 -264 -186 -296 0 -7 -4 -13 -10 -13 -5 0 -9 -3 -8 -7 1 -5 -8
-35 -21 -68 -55 -144 -76 -267 -75 -450 0 -186 16 -281 75 -442 24 -67 119
-253 139 -273 3 -3 18 -23 35 -45 16 -22 44 -56 61 -75 18 -19 43 -47 56 -61
82 -92 284 -229 416 -280 12 -5 32 -13 45 -18 61 -26 180 -56 267 -69 118 -18
356 -6 480 24 83 19 213 65 218 77 2 4 9 7 16 7 18 0 66 24 66 33 0 4 6 7 13
7 12 0 161 98 206 135 206 173 375 450 430 705 5 25 13 59 16 75 13 58 13 313
0 391 -48 298 -173 538 -386 741 -68 65 -153 132 -201 157 -32 17 -37 25 -40
64 -2 24 -1 45 1 47 2 3 3 46 2 97 -1 51 -2 98 -2 103 0 6 2 36 3 68 2 31 1
57 -2 57 -3 0 -4 26 -3 57 2 32 4 86 5 121 2 34 -1 62 -5 62 -5 0 -6 4 -2 10
4 7 7 142 4 230 0 15 0 74 1 120 5 164 4 220 -3 220 -5 0 -6 4 -3 9 5 8 7 67
5 131 0 12 0 80 0 190 0 8 2 41 3 73 2 31 1 57 -2 57 -3 0 -4 26 -3 57 2 32 4
86 5 121 2 34 -1 62 -5 62 -5 0 -6 4 -2 10 4 7 7 142 4 230 0 15 0 74 1 120 4
155 4 220 -1 220 -3 0 -3 21 1 48 3 26 3 58 0 70 -3 13 -3 57 0 98 3 42 2 78
-3 81 -4 2 -5 8 -2 13 4 7 5 32 4 133 0 14 0 63 0 185 0 9 1 40 1 68 0 29 0
56 -1 60 -1 5 0 14 1 19 4 23 -5 182 -14 220 -10 47 -40 124 -69 178 -31 59
-154 197 -175 197 -7 0 -12 4 -12 9 0 12 -106 66 -180 91 -46 16 -96 23 -171
26 -59 1 -108 1 -110 -1z"/>
</g>
</svg>
